<svg id="圖層_1" data-name="圖層 1" xmlns="http://www.w3.org/2000/svg" xmlns:xlink="http://www.w3.org/1999/xlink" viewBox="0 0 392.25 131"><defs><style>.cls-1,.cls-15,.cls-2,.cls-3,.cls-4,.cls-5,.cls-6{stroke:#000;}.cls-1,.cls-10,.cls-11,.cls-12,.cls-13,.cls-15,.cls-2,.cls-3,.cls-4,.cls-5,.cls-6,.cls-9{stroke-miterlimit:10;}.cls-10,.cls-12,.cls-2,.cls-3,.cls-4,.cls-5,.cls-6,.cls-9{fill:none;}.cls-10,.cls-12,.cls-2,.cls-3,.cls-4,.cls-6,.cls-9{stroke-width:2px;}.cls-3{stroke-dasharray:12.93 12.93;}.cls-4{stroke-dasharray:15.98 15.98;}.cls-6{stroke-dasharray:20;}.cls-7{fill:#666;}.cls-13,.cls-15,.cls-8{fill:#fff;}.cls-10,.cls-12,.cls-13,.cls-9{stroke:#fff;}.cls-10{stroke-dasharray:13.53 13.53;}.cls-11{fill:#ff0;stroke:#ff0;}.cls-12{stroke-dasharray:15;}.cls-14{fill:url(#未命名漸層_19);}</style><linearGradient id="未命名漸層_19" x1="146.16" y1="5.34" x2="169.5" y2="28.68" gradientUnits="userSpaceOnUse"><stop offset="0.05" stop-color="#fff"/><stop offset="0.46"/></linearGradient></defs><path class="cls-1" d="M769.6,542.55a14.73,14.73,0,0,0-4.3-4.54,29.29,29.29,0,0,0-6.74-3.42,74.92,74.92,0,0,0-8.67-2.54l-4.08-.9-.89-.21a41.66,41.66,0,0,1-9.83-3.2q-3.11-1.65-3.1-4c0-1.62,1.07-2.94,3.2-3.94a18.9,18.9,0,0,1,8.07-1.51,15.47,15.47,0,0,1,8,1.77,11.33,11.33,0,0,1,3.47,3,7.65,7.65,0,0,1,.56.93l13.15-3.68a16.41,16.41,0,0,0-2.77-3.76,19.65,19.65,0,0,0-4.91-3.64,31.09,31.09,0,0,0-7.4-2.73,49.58,49.58,0,0,0-20.77.08,28.86,28.86,0,0,0-8.07,3.16,16.25,16.25,0,0,0-5.19,4.72,10.14,10.14,0,0,0-1.82,5.78,9.07,9.07,0,0,0,1.71,5.41,16.56,16.56,0,0,0,4.37,4.16,29.28,29.28,0,0,0,5.91,3,46.82,46.82,0,0,0,6.46,2l1.3.32,3.56.86q4.3,1,7.23,2a26.44,26.44,0,0,1,4.75,2,7.34,7.34,0,0,1,2.6,2.2,4.81,4.81,0,0,1,.77,2.66,4.09,4.09,0,0,1-1,2.72,7.4,7.4,0,0,1-2.71,2,16.81,16.81,0,0,1-3.86,1.18,24.24,24.24,0,0,1-4.48.41q-6.28,0-10.16-2.62a14,14,0,0,1-5.07-5.8,7.83,7.83,0,0,1-.34-.79l-14,3.68a20.35,20.35,0,0,0,4.53,6.45,26.51,26.51,0,0,0,6.74,4.67,34.86,34.86,0,0,0,8.5,2.88,48.56,48.56,0,0,0,9.72,1,49.67,49.67,0,0,0,9.5-1,34.69,34.69,0,0,0,8.73-2.88,19.25,19.25,0,0,0,6.35-4.89,10.74,10.74,0,0,0,2.49-7.11A11.27,11.27,0,0,0,769.6,542.55Z" transform="translate(-710.71 -506.2)"/><path class="cls-1" d="M884.88,542.21l.11-.51a34.15,34.15,0,0,0,6.52-2.25,26.18,26.18,0,0,0,5.41-3.31,14.91,14.91,0,0,0,3.64-4.2,9.8,9.8,0,0,0,1.33-5A12.52,12.52,0,0,0,900,520.3a16.45,16.45,0,0,0-5.36-5.26,28.4,28.4,0,0,0-8.34-3.46,43.08,43.08,0,0,0-10.82-1.26H846.66v52.73h14.91V543.24h7L889,563.05h17.12v-.58Zm-9.5-8.1H861.57V519.46h14c.64,0,1.26,0,1.86.08a15.48,15.48,0,0,1,3,.54,11.93,11.93,0,0,1,3.39,1.52l.21.14a7.13,7.13,0,0,1,2.15,2.36c.06.12.13.24.18.36a5.53,5.53,0,0,1,.54,2.36,5.4,5.4,0,0,1-.54,2.39,7.18,7.18,0,0,1-2.72,2.84,12.59,12.59,0,0,1-3.16,1.4A18.76,18.76,0,0,1,875.38,534.11Z" transform="translate(-710.71 -506.2)"/><path class="cls-1" d="M825.67,584l-17,31.74-3.09,6.78h-.88l-2.87-6.78L785.46,584H769.33l27.95,52.73H813L841.79,584Z" transform="translate(-710.71 -506.2)"/><path class="cls-1" d="M851.07,584V636.7H866V584Z" transform="translate(-710.71 -506.2)"/><path class="cls-1" d="M932.05,593.4V584H881.89V636.7h50.16v-9.43H896.81V615.05h31.7v-9.43h-31.7V593.4Z" transform="translate(-710.71 -506.2)"/><path class="cls-1" d="M1025.61,584l-11.49,30.78-1.65,5.6h-.89l-2.21-5.6L997.88,591H984l-11.38,23.71-2.32,5.67h-.89l-1.76-5.67L955.35,584H939.56l21.87,52.73h14.36l12.37-25.41,2.32-5.82h.89l2.32,5.82,12.37,25.41h14.36l21-52.73Z" transform="translate(-710.71 -506.2)"/><path d="M759.92,518.43l-5.18,4.66a11.33,11.33,0,0,0-3.47-3,15.47,15.47,0,0,0-8-1.77,18.9,18.9,0,0,0-8.07,1.51c-2.13,1-3.2,2.32-3.2,3.94s1,2.91,3.1,4a41.66,41.66,0,0,0,9.83,3.2l.89.21-4,3.61c-1.84-.54-3.85-1.07-6-1.61,0,0-19.14-6.48-8.83-14.72S752,512.24,759.92,518.43Z" transform="translate(-710.71 -506.2)"/><path class="cls-2" d="M748.55,513.5a26.76,26.76,0,0,1,11.37,4.93l-5.18,4.66a11.33,11.33,0,0,0-3.47-3,15,15,0,0,0-7.56-1.77" transform="translate(-710.71 -506.2)"/><path class="cls-2" d="M734,527.1a9.42,9.42,0,0,0,1.05.64,41.66,41.66,0,0,0,9.83,3.2l.89.21-4,3.61c-1.84-.54-3.85-1.07-6-1.61a36.26,36.26,0,0,1-5.68-2.58" transform="translate(-710.71 -506.2)"/><path class="cls-3" d="M724.85,520.57a10.08,10.08,0,0,1,2.08-2.14A25.31,25.31,0,0,1,742.11,513" transform="translate(-710.71 -506.2)"/><path d="M762.86,547.29s-2.94,14.73-21.21,11.79c0,0-14.14,0-17.67-8.25l4.93-4.44a14,14,0,0,0,5.07,5.8q3.87,2.61,10.16,2.62a24.24,24.24,0,0,0,4.48-.41,16.81,16.81,0,0,0,3.86-1.18,7.4,7.4,0,0,0,2.71-2,4.09,4.09,0,0,0,1-2.72,4.81,4.81,0,0,0-.77-2.66,7.34,7.34,0,0,0-2.6-2.2,26.44,26.44,0,0,0-4.75-2q-2.92-1-7.23-2l-3.56-.86,4.53-4.09c7.45,2.14,12.27,4.23,15.4,6.08C763.54,544.58,762.86,547.29,762.86,547.29Z" transform="translate(-710.71 -506.2)"/><path class="cls-2" d="M733.75,557.94c-3.87-1.06-8.06-3.12-9.77-7.11l4.93-4.44a14,14,0,0,0,5.07,5.8,14.22,14.22,0,0,0,4.27,1.91" transform="translate(-710.71 -506.2)"/><path class="cls-2" d="M749.33,542.13l-1.27-.43q-2.92-1-7.23-2l-3.56-.86,4.53-4.09a84,84,0,0,1,11.77,4.2" transform="translate(-710.71 -506.2)"/><path class="cls-4" d="M761.89,550.07c-1.89,4.11-7.11,11.12-20.24,9" transform="translate(-710.71 -506.2)"/><rect class="cls-1" x="150.24" y="12.16" width="25.5" height="15.08"/><circle class="cls-1" cx="162.8" cy="19.71" r="3.59"/><rect class="cls-1" x="166.76" y="13.24" width="6.82" height="2.15"/><path class="cls-1" d="M965.3,519.75v-9.43H915.15v52.73H965.3v-9.42H930.06V541.4h31.7V532h-31.7V519.75Z" transform="translate(-710.71 -506.2)"/><line class="cls-5" x1="221.69" y1="9.13" x2="250.56" y2="9.13"/><line class="cls-5" x1="220.51" y1="52.44" x2="249.38" y2="52.44"/><line class="cls-5" x1="223.16" y1="30.05" x2="249.38" y2="30.05"/><line class="cls-6" x1="211.67" y1="51.85" x2="211.67" y2="9.13"/><path class="cls-1" d="M1029.52,519.75v-9.43H979.36v52.73h50.16v-9.42H994.28V541.4H1026V532h-31.7V519.75Z" transform="translate(-710.71 -506.2)"/><line class="cls-5" x1="285.91" y1="9.13" x2="314.78" y2="9.13"/><line class="cls-5" x1="284.73" y1="52.44" x2="313.6" y2="52.44"/><line class="cls-5" x1="287.38" y1="30.05" x2="313.6" y2="30.05"/><line class="cls-6" x1="275.89" y1="51.85" x2="275.89" y2="9.13"/><line class="cls-5" x1="73.51" y1="13.85" x2="69.39" y2="9.13"/><path class="cls-1" d="M831.61,515.17h-4.23l-41,.12H782.1l-5.15,0v.95l5.69,3.47h16.41v43.3H814v-43.3h16.62l5.47-3.34v-1.25Z" transform="translate(-710.71 -506.2)"/><polygon class="cls-1" points="103.29 13.85 103.47 13.85 107 13.85 119.39 13.85 126.24 9.66 119.39 4.33 107 4.33 93.39 4.33 84.81 4.33 72.42 4.33 65.56 9.66 72.42 13.85 84.81 13.85 88.57 13.85 103.29 13.85"/><polygon class="cls-1" points="75.72 6.88 75.72 11.31 71.3 9.07 75.72 6.88"/><polygon class="cls-1" points="116.67 6.88 116.67 11.31 121.09 9.07 116.67 6.88"/><line class="cls-5" x1="338.64" y1="12.96" x2="334.51" y2="8.25"/><path class="cls-1" d="M1096.73,514.29h-4.23l-41,.12h-4.33l-5.15,0v.94l5.7,3.48h16.4v43.3h14.91v-43.3h16.62l5.48-3.35v-1.24Z" transform="translate(-710.71 -506.2)"/><polygon class="cls-1" points="368.41 12.96 368.6 12.96 372.12 12.96 384.51 12.96 391.37 8.78 384.51 3.45 372.12 3.45 358.51 3.45 349.93 3.45 337.54 3.45 330.68 8.78 337.54 12.96 349.93 12.96 353.7 12.96 368.41 12.96"/><polygon class="cls-1" points="340.85 6 340.85 10.42 336.42 8.19 340.85 6"/><polygon class="cls-1" points="381.79 6 381.79 10.42 386.22 8.19 381.79 6"/><path class="cls-7" d="M740.2,561.29a47.83,47.83,0,0,1-9.72-1,35.27,35.27,0,0,1-8.5-2.87,26.8,26.8,0,0,1-6.74-4.68,20.42,20.42,0,0,1-4.53-6.44l14-3.69a14,14,0,0,0,5.41,6.6q3.87,2.61,10.16,2.61a24.24,24.24,0,0,0,4.48-.4,17.31,17.31,0,0,0,3.86-1.18,7.63,7.63,0,0,0,2.71-1.95,4.13,4.13,0,0,0,1-2.73,4.68,4.68,0,0,0-.77-2.65,7.35,7.35,0,0,0-2.6-2.21,26.13,26.13,0,0,0-4.75-2q-2.93-1-7.23-2l-4.86-1.18a48.16,48.16,0,0,1-6.46-2,30.35,30.35,0,0,1-5.91-3,16.72,16.72,0,0,1-4.37-4.16,9.1,9.1,0,0,1-1.71-5.42,10.14,10.14,0,0,1,1.82-5.78,16.34,16.34,0,0,1,5.19-4.71,28.86,28.86,0,0,1,8.07-3.17,49.36,49.36,0,0,1,20.77-.07,30.93,30.93,0,0,1,7.4,2.72,19.67,19.67,0,0,1,4.91,3.65,16.08,16.08,0,0,1,2.77,3.75l-13.15,3.69a10.18,10.18,0,0,0-4-4,15.44,15.44,0,0,0-8-1.77,19,19,0,0,0-8.06,1.51q-3.21,1.51-3.21,3.94t3.09,4a42.59,42.59,0,0,0,9.84,3.2l5,1.1a77,77,0,0,1,8.67,2.54,28.91,28.91,0,0,1,6.74,3.43,14.64,14.64,0,0,1,4.31,4.53,11.36,11.36,0,0,1,1.49,5.85,10.74,10.74,0,0,1-2.49,7.11,19.27,19.27,0,0,1-6.35,4.9,35.09,35.09,0,0,1-8.73,2.87A48.91,48.91,0,0,1,740.2,561.29Z" transform="translate(-710.71 -506.2)"/><path class="cls-7" d="M842.83,507.38h28.83a43.57,43.57,0,0,1,10.82,1.25,29.25,29.25,0,0,1,8.35,3.46,16.54,16.54,0,0,1,5.35,5.27,12.52,12.52,0,0,1,1.88,6.66,9.86,9.86,0,0,1-1.32,5,15,15,0,0,1-3.65,4.2,26.2,26.2,0,0,1-5.41,3.32,34.83,34.83,0,0,1-6.52,2.24l-.11.52,21.21,20.25v.59H885.14L864.7,540.3h-7v19.81H842.83Zm28.72,23.79a15.32,15.32,0,0,0,8.34-2.07q3.25-2.05,3.26-5.23a5.62,5.62,0,0,0-.72-2.72,7.22,7.22,0,0,0-2.15-2.36,11.82,11.82,0,0,0-3.59-1.65,17.59,17.59,0,0,0-4.92-.63h-14v14.66Z" transform="translate(-710.71 -506.2)"/><path class="cls-8" d="M765.5,581h16.13L798,612.76l2.87,6.78h.88l3.1-6.78,17-31.74H838l-28.84,52.73H793.45Z" transform="translate(-710.71 -506.2)"/><path class="cls-8" d="M847.24,581h14.92v52.73H847.24Z" transform="translate(-710.71 -506.2)"/><path class="cls-8" d="M893,590.45v12.23h31.7v9.42H893v12.23h35.24v9.42H878.06V581h50.16v9.43Z" transform="translate(-710.71 -506.2)"/><path class="cls-8" d="M935.73,581h15.79l12.27,30.79,1.76,5.67h.89l2.32-5.67,11.38-23.72h13.91l11.49,23.72,2.21,5.59h.89l1.65-5.59L1021.78,581h15.8l-21,52.73h-14.36l-12.37-25.4-2.32-5.82h-.89l-2.32,5.82L972,633.75H957.6Z" transform="translate(-710.71 -506.2)"/><path class="cls-9" d="M756.09,515.48a24.82,24.82,0,0,0-6.55-3.59" transform="translate(-710.71 -506.2)"/><path class="cls-10" d="M736.23,510.19a25.08,25.08,0,0,0-13.13,5.29c-10.31,8.25,8.83,14.73,8.83,14.73,11,2.69,17.54,5.38,21.44,7.68,6.34,3.75,5.66,6.46,5.66,6.46s-2.94,14.73-21.2,11.78a33.28,33.28,0,0,1-6.19-.72" transform="translate(-710.71 -506.2)"/><path class="cls-9" d="M725.28,553.17a11.16,11.16,0,0,1-5.13-5.29" transform="translate(-710.71 -506.2)"/><path class="cls-7" d="M926.23,516.8V529h31.7v9.43h-31.7v12.22h35.24v9.43H911.32V507.38h50.15v9.42Z" transform="translate(-710.71 -506.2)"/><line class="cls-11" x1="217.86" y1="6.19" x2="246.73" y2="6.19"/><line class="cls-11" x1="216.68" y1="49.49" x2="245.55" y2="49.49"/><line class="cls-11" x1="219.33" y1="27.1" x2="245.55" y2="27.1"/><line class="cls-12" x1="207.84" y1="48.9" x2="207.84" y2="6.19"/><path class="cls-7" d="M990.45,516.8V529h31.7v9.43h-31.7v12.22h35.24v9.43H975.53V507.38h50.16v9.42Z" transform="translate(-710.71 -506.2)"/><line class="cls-11" x1="282.08" y1="6.19" x2="310.95" y2="6.19"/><line class="cls-11" x1="280.9" y1="49.49" x2="309.77" y2="49.49"/><line class="cls-11" x1="283.55" y1="27.1" x2="309.77" y2="27.1"/><line class="cls-12" x1="272.06" y1="48.9" x2="272.06" y2="6.19"/><line class="cls-8" x1="69.68" y1="10.9" x2="65.56" y2="6.19"/><path class="cls-7" d="M832.22,513.46v-1.24l-59.1.16v1l5.69,3.47h16.41v43.31h14.91V516.8h16.62Z" transform="translate(-710.71 -506.2)"/><polygon class="cls-7" points="99.46 10.9 99.64 10.9 103.17 10.9 115.56 10.9 122.42 6.71 115.56 1.38 103.17 1.38 89.56 1.38 80.98 1.38 68.59 1.38 61.73 6.71 68.59 10.9 80.98 10.9 84.75 10.9 99.46 10.9"/><polygon class="cls-13" points="71.89 3.94 71.89 8.36 67.47 6.12 71.89 3.94"/><polygon class="cls-13" points="112.84 3.94 112.84 8.36 117.26 6.12 112.84 3.94"/><line class="cls-8" x1="334.81" y1="10.02" x2="330.68" y2="5.3"/><path class="cls-7" d="M1097.35,512.58v-1.25l-59.1.17v1l5.69,3.47h16.4v43.3h14.91v-43.3h16.62Z" transform="translate(-710.71 -506.2)"/><polygon class="cls-7" points="364.58 10.02 364.77 10.02 368.29 10.02 380.68 10.02 387.54 5.83 380.68 0.5 368.29 0.5 354.68 0.5 346.1 0.5 333.71 0.5 326.85 5.83 333.71 10.02 346.1 10.02 349.87 10.02 364.58 10.02"/><polygon class="cls-13" points="337.02 3.06 337.02 7.48 332.6 5.24 337.02 3.06"/><polygon class="cls-13" points="377.96 3.06 377.96 7.48 382.39 5.24 377.96 3.06"/><rect class="cls-14" x="143.17" y="8.34" width="29.33" height="17.35"/><circle class="cls-15" cx="157.62" cy="17.01" r="4.13"/><rect class="cls-15" x="162.17" y="9.57" width="7.85" height="2.48"/></svg>